<?xml version="1.0" encoding="UTF-8"?>
<!-- Created with Inkscape (http://www.inkscape.org/) -->
<svg width="210mm" height="210mm" version="1.1" viewBox="0 0 210 210" xmlns="http://www.w3.org/2000/svg">
 <g transform="translate(13.126 8.5822)">
  <path d="m148.61 53.375c-1e-5 0-48.585 5.8369-49.187 41.471-0.42426 25.133 8.3731 26.605 16.456 37.088 3.7858 10.984 14.12 18.359 25.739 18.368 11.72-7e-3 22.122-7.5089 25.83-18.627 6.3058 6.6699 6.2569 9.6306 5.9976 15.734-0.66877 15.737-27.085 20.576-27.085 20.576l4.7424 17.762s34.446-10.656 35.122-38.579c0.28106-11.616-9.233-23.168-17.951-29.75-2.6644-12.595-13.781-21.606-26.655-21.607-11.585 9e-3 -21.897 7.3422-25.709 18.282-4.9451-5.9545-4.3188-14.56-3.2246-19.247 5.4619-23.392 38.819-26.04 38.819-26.04z" fill="#ffcd5c" stroke-linecap="round" stroke-linejoin="round" stroke-width=".67544"/>
  <g stroke="#000">
   <path d="m155.6 116.74 2.3203 1.5618s-1.2496 5.6617-6.7824 5.7115c-4.953 0.0446-7.0056-5.3546-7.0056-5.3546l2.7219-1.9187s1.5618 3.0789 4.239 3.2574c2.6773 0.17848 4.5068-3.2574 4.5068-3.2574z" opacity=".33" stroke-width=".26458px"/>
   <path d="m150.56 127.84 3.4423 1.6367s-5.1592 8.7139-14.675 7.7185c-9.1474-0.95691-11.254-10.459-11.254-10.459l3.3001-0.92255s2.4382 6.9243 8.689 7.754c5.72 0.75919 10.497-5.7272 10.497-5.7272z" opacity=".33" stroke-width=".56897px"/>
   <path d="m137.21 116.49 2.8671 2.29s-2.02 4.8668-7.5066 4.1516c-4.9116-0.64024-5.6083-5.9341-5.6083-5.9341l2.2487-0.9864s0.75504 3.1503 3.382 3.6971c2.6269 0.54673 4.6171-3.2182 4.6171-3.2182z" opacity=".33" stroke-width=".26458px"/>
  </g>
 </g>
 <g transform="translate(27.766 9.5918)">
  <path d="m-15.805 96.369 58.396-19.511 5.2483-81.371 25.472 78.427 68.467 10.79-65.758 17.392-9.7162 66.428-20.35-64.532z" fill="#cd87de"/>
  <g stroke="#000">
   <path d="m47.308 79.883-2.3203 1.5618s1.2496 5.6617 6.7825 5.7115c4.953 0.04462 7.0056-5.3546 7.0056-5.3546l-2.7219-1.9187s-1.5617 3.0789-4.239 3.2574c-2.6773 0.17848-4.5068-3.2574-4.5068-3.2574z" opacity=".33" stroke-width=".26458px"/>
   <path d="m50.761 89.562-3.4423 1.6367s5.1592 8.7139 14.675 7.7185c9.1474-0.95691 11.254-10.459 11.254-10.459l-3.3001-0.92254s-2.4382 6.9243-8.689 7.754c-5.72 0.75919-10.497-5.7272-10.497-5.7272z" opacity=".33" stroke-width=".56897px"/>
   <path d="m64.78 78.419-2.8671 2.29s2.02 4.8668 7.5066 4.1516c4.9116-0.64024 5.6083-5.9341 5.6083-5.9341l-2.2487-0.9864s-0.75504 3.1503-3.382 3.6971c-2.6269 0.54673-4.6171-3.2182-4.6171-3.2182z" opacity=".33" stroke-width=".26458px"/>
  </g>
 </g>
</svg>
